<svg xmlns="http://www.w3.org/2000/svg" width="256" height="256" viewBox="0 0 256 256">
<polyline points="153.48 242.94 153.24 232.41 153.16 228.54 153 221.87 158.4 221.97 160.74 220.77 163.13 218.5 165.41 214.85 167.4 209.52 170.54 194.6 171.97 186.2 173.46 177.92 175.16 170.31 177.19 163.95 179.68 159.4 182.76 157.21 186.3 159.2 190.06 165.92 193.96 176.02 197.94 188.18 205.91 213.3 209.77 223.6 213.47 230.59 217.09 235 224.75 241.17 229.01 243.13 233.7 244.47 238.92 245.31 244.78 245.73 251.39 245.85 153.48 242.94" fill="#d9d9d9"/>
<path d="M151.65,241.57l-.48-27.26s9.59,3.94,14.39-11.17,7.55-55.06,20.12-53.47c13.48,0,16.36,60.69,26,72.52S230.83,236,249.55,236" fill="none" stroke="gray" stroke-width="18"/>
<polyline points="36.86 240.94 41.56 238.73 45.74 232.46 49.45 222.69 52.79 209.95 55.81 194.78 58.61 177.74 61.24 159.35 66.31 120.75 68.9 101.62 71.62 83.33 74.55 66.42 77.76 51.44 81.33 38.92 85.33 29.42 89.82 23.47 94.45 21.61 99.85 23.97 104.71 30.64 109.09 40.99 113.06 54.41 116.69 70.27 120.05 87.94 123.2 106.81 126.21 126.25 129.15 145.64 132.09 164.36 135.09 181.78 138.22 197.28 141.55 210.24 145.15 220.03 149.09 226.04 152.68 227.71 153.96 231.27 153 235.19 153 244.07" fill="#b3d9ed" fill-rule="evenodd"/>
<path d="M6.14,235.17H36.86C65,235.17,64.38,21.61,94.45,21.61S129,221.16,152.68,222.29l.32,7.29v14.13" fill="none" stroke="#0080c0" stroke-width="18"/>
<path d="M21.21,226.84a20,20,0,1,1,20,19.94,19.89,19.89,0,0,1-20-19.94Z" fill="#ffd9c6" opacity="0.7"/>
<path d="M21.21,226.84a20,20,0,1,1,20,19.94,19.89,19.89,0,0,1-20-19.94Z" fill="none" stroke="#ff8040" stroke-width="13" opacity="0.7"/>
<path d="M129.53,203.1A22.5,22.5,0,1,1,152,225.53a22.37,22.37,0,0,1-22.5-22.43Z" fill="#c6d9d9" opacity="0.8"/>
<path d="M129.53,203.1A22.5,22.5,0,1,1,152,225.53a22.37,22.37,0,0,1-22.5-22.43Z" fill="none" stroke="#408080" stroke-width="13" opacity="0.8"/>
<path d="M202.62,226.84a20,20,0,1,1,20,19.94,19.89,19.89,0,0,1-20-19.94Z" fill="#d9b3b3" opacity="0.6"/>
<path d="M202.62,226.84a20,20,0,1,1,20,19.94,19.89,19.89,0,0,1-20-19.94Z" fill="none" stroke="maroon" stroke-width="13" opacity="0.6"/>
</svg>
