<svg xmlns="http://www.w3.org/2000/svg" width="256" height="256" viewBox="0 0 256 256">
<path d="M240,163.75c-26.9,1.71-39.23-10.9-45.5-23.17-10.73-21-20.57-73.23-26.75-78.27a7.81,7.81,0,0,0-5.08-1.82,7.46,7.46,0,0,0-5.23,2c-5.9,5.4-14.08,54.58-22.48,74.15-6.06,14.12-19.33,28.73-51.72,27.07H22.92" fill="none" stroke="#ffca71" stroke-width="15"/>
<path d="M22.92,199.52c83.8,0,58.83-169.26,86.79-169.26s-3,169.26,89.16,169.26H240" fill="none" stroke="#d0583b" stroke-width="15"/>
<polygon points="2.78 72.61 22.98 72.61 22.98 252.85 2.78 252.85 2.78 72.61 2.78 72.61" fill="#3471b0"/>
<path d="M2.78,2l40,81.61s-26.91-10.21-40-10.21V2Z" fill="#3471b0"/>
<polygon points="2.78 233.24 183.91 233.24 183.91 252.85 2.78 252.85 2.78 233.24 2.78 233.24" fill="#3471b0"/>
<path d="M254.72,252.85H183.1a84.74,84.74,0,0,0-10.24-40l81.86,40Z" fill="#3471b0"/>
</svg>
