<svg xmlns="http://www.w3.org/2000/svg" xmlns:xlink="http://www.w3.org/1999/xlink" width="256" height="256" viewBox="0 0 256 256">
<defs>
<clipPath id="c1">
<rect x="69.61" y="12.17" width="157.67" height="232.17" fill="none"/>
</clipPath>
<linearGradient id="g1" x1="98.89" y1="95.55" x2="163.8" y2="160.45" gradientTransform="translate(280.69 256) rotate(180)" gradientUnits="userSpaceOnUse">
<stop offset="0" stop-color="red" stop-opacity="0.2"/>
<stop offset="0.8" stop-color="#223a73"/>
</linearGradient>
</defs>
<polyline points="10.32 77.55 11.44 79.28 14.39 83.83 18.56 90.28 23.34 97.66 28.11 105.04 32.28 111.48 35.23 116.04 36.35 117.77 37.36 113.09 40.01 100.74 43.76 83.29 52.36 43.27 56.12 25.82 58.77 13.47 59.77 8.79 61.17 15.87 64.86 34.53 70.07 60.92 76.04 91.17 82.02 121.42 87.23 147.81 90.91 166.48 92.31 173.56 93.04 168.88 94.95 156.53 97.66 139.07 100.77 119.07 103.88 99.06 106.58 81.61 108.5 69.26 109.23 64.58 110.01 66.19 112.08 70.46 114.99 76.48 118.34 83.39 121.68 90.3 124.6 96.32 126.67 100.58 127.45 102.2 135.91 101.55 139.01 101.31 144.37 100.9 10.32 77.55" fill="#d9b3b3"/>
<polyline points="10.32 77.55 36.35 117.77 59.77 8.79 92.31 173.56 109.23 64.58 127.45 102.2 144.37 100.9" fill="none" stroke="maroon" stroke-width="15" stroke-miterlimit="2"/>
<polyline points="250.23 208.98 236.08 205.86 225.36 195.22 217.35 179.5 211.35 161.14 206.62 142.61 202.46 126.33 198.15 114.78 192.97 110.38 187.73 116.02 183.57 130.9 180.2 151.98 177.35 176.22 174.74 200.59 172.1 222.04 169.16 237.53 165.63 244.01 162.07 243.36 159.07 240.04 154.09 228.77 151.77 222.53 146.65 213.08 143.51 211.58 128.38 212.23 125.1 212.47 120.72 212.82 250.23 208.98" fill="#b3d9ff"/>
<path d="M250.23,209c-42.95,3.9-41.65-98.6-57.26-98.6s-16.92,131-27.33,133.63-13-32.43-22.13-32.43-23.42,1.3-23.42,1.3" fill="none" stroke="#0080ff" stroke-width="15"/>
<g clip-path="url(#c1)">
<line x1="219.34" y1="6.76" x2="79.34" y2="249.24" fill="#231f20" stroke-miterlimit="10" stroke-width="20" stroke="url(#g1)"/>
</g>
</svg>